# xmcd CD database file
#
# Track frame offsets:
#	150
#	30375
#	53312
#	119257
#	135775
#	159335
#	180361
#	215623
#	269395
#
# Disc length: 4012 seconds
#
# Revision: 0
# Processed by: cddbd v1.5.1PL2 Copyright (c) Steve Scherf et al.
# Submitted via: CDex 1.50beta10
#
DISCID=660faa09
DTITLE=Eric Clapton - Le Cannet [CD2)
DYEAR=2006
DGENRE=Blues
TTITLE0=Running on Faith
TTITLE1=After Midnight
TTITLE2=Little Queen of Spades
TTITLE3=Everybody Outha Make A Change
TTITLE4=Motherless Children
TTITLE5=Wonderful Tonight
TTITLE6=Cocaine
TTITLE7=Layla
TTITLE8=Crossroads
EXTD=YEAR: 2006
EXTT0=
EXTT1=
EXTT2=
EXTT3=
EXTT4=
EXTT5=
EXTT6=
EXTT7=
EXTT8=
PLAYORDER=
